<?xml version="1.0" standalone="no"?>
<!DOCTYPE svg PUBLIC "-//W3C//DTD SVG 20010904//EN" "http://www.w3.org/TR/2001/REC-SVG-20010904/DTD/svg10.dtd">
<svg version="1.0" xmlns="http://www.w3.org/2000/svg"
     width="790.000000pt" height="561.000000pt" viewBox="0 0 790.000000 561.000000"
     preserveAspectRatio="xMidYMid meet">

    <g transform="translate(0.000000,561.000000) scale(0.100000,-0.100000)"
       fill="#0284c7" stroke="none">
        <path d="M5920 5581 c-54 -11 -92 -35 -139 -86 -142 -154 -127 -447 30 -589
157 -141 350 -65 420 166 32 103 24 240 -18 330 -62 133 -178 204 -293 179z"/>
        <path d="M6489 5290 c-38 -20 -78 -71 -105 -135 -25 -58 -23 -168 4 -221 102
-198 339 -92 350 156 3 66 0 81 -25 129 -33 64 -76 91 -143 91 -25 -1 -61 -9
-81 -20z"/>
        <path d="M6912 5044 c-35 -17 -60 -40 -81 -71 -37 -55 -45 -92 -39 -178 3 -53
9 -71 34 -102 65 -81 157 -80 239 2 107 106 96 304 -19 356 -54 25 -73 24
-134 -7z"/>
        <path d="M7255 4754 c-50 -26 -84 -65 -105 -121 -48 -130 5 -243 115 -243 108
0 208 135 190 256 -14 99 -115 153 -200 108z"/>
        <path d="M6100 4700 c-117 -19 -201 -61 -274 -139 -92 -99 -130 -234 -108
-387 28 -190 113 -377 285 -624 180 -257 243 -439 218 -624 -14 -101 -39 -170
-136 -376 -103 -218 -138 -312 -160 -420 -69 -341 142 -630 496 -679 200 -28
408 71 530 251 78 114 110 221 139 458 35 283 74 434 184 704 128 316 154 419
162 641 7 172 -10 278 -66 423 -102 265 -379 533 -695 671 -184 81 -430 124
-575 101z m262 -204 c221 -43 437 -162 613 -340 192 -193 275 -382 275 -628 0
-170 -37 -312 -190 -723 -71 -191 -97 -297 -125 -522 -28 -218 -28 -221 -62
-325 -58 -182 -176 -293 -340 -320 -159 -27 -345 68 -410 208 -79 171 -47 344
151 814 94 222 117 339 96 490 -22 160 -73 275 -220 500 -149 228 -216 374
-240 525 -26 166 40 280 190 326 42 12 184 10 262 -5z"/>
        <path d="M2690 4005 l0 -485 79 0 79 0 7 31 c6 28 8 29 24 15 64 -58 207 -77
291 -39 98 43 151 114 176 234 30 140 -3 277 -85 359 -95 95 -224 106 -344 30
-26 -16 -50 -30 -53 -30 -3 0 -4 83 -2 185 l3 185 -87 0 -88 0 0 -485z m417
27 c49 -35 68 -85 68 -177 0 -62 -4 -88 -20 -114 -43 -72 -117 -100 -200 -76
-86 26 -84 22 -86 189 -1 139 0 149 20 162 66 47 165 54 218 16z"/>
        <path d="M3524 4475 c-51 -26 -67 -81 -39 -135 19 -36 43 -50 90 -50 67 0 112
54 99 120 -13 62 -89 96 -150 65z"/>
        <path d="M3820 4005 l0 -485 85 0 85 0 0 485 0 485 -85 0 -85 0 0 -485z"/>
        <path d="M740 3985 l0 -465 90 0 90 0 0 337 c0 185 2 334 5 331 4 -4 124 -350
218 -628 l12 -35 80 -3 80 -2 114 332 c63 183 117 336 121 341 3 4 6 -146 6
-333 l-1 -340 93 0 92 0 0 465 0 465 -140 0 -139 0 -106 -321 c-58 -177 -105
-328 -105 -335 0 -46 -27 23 -125 321 l-109 335 -138 0 -138 0 0 -465z"/>
        <path d="M7501 4428 c-77 -38 -126 -146 -102 -221 25 -76 95 -104 174 -69 65
29 100 85 105 168 5 75 -11 108 -63 130 -46 19 -62 18 -114 -8z"/>
        <path d="M2113 4186 c-103 -33 -162 -86 -204 -182 -26 -58 -32 -202 -11 -271
28 -94 123 -188 215 -215 59 -16 183 -13 236 6 145 53 218 177 209 356 -9 195
-125 310 -318 317 -53 2 -101 -2 -127 -11z m198 -149 c54 -35 74 -87 74 -187
0 -72 -4 -91 -24 -123 -45 -73 -154 -100 -221 -54 -61 41 -73 68 -78 164 -3
77 0 94 20 133 32 61 77 90 143 90 37 0 62 -6 86 -23z"/>
        <path d="M4334 4182 c-73 -25 -126 -72 -165 -144 -33 -62 -34 -65 -34 -183 0
-118 1 -121 34 -183 40 -74 86 -115 156 -141 109 -41 229 -34 342 20 l63 30
-30 58 -29 59 -58 -24 c-67 -27 -165 -32 -217 -10 -40 17 -83 71 -92 114 l-6
32 222 0 222 0 -4 98 c-3 84 -8 104 -33 151 -67 122 -223 174 -371 123z m166
-115 c35 -18 70 -74 70 -113 l0 -34 -130 0 -130 0 0 28 c0 87 113 158 190 119z"/>
        <path d="M3485 3855 l0 -335 88 0 87 0 0 335 0 335 -87 0 -88 0 0 -335z"/>
        <path d="M1606 3214 c-75 -24 -128 -65 -160 -124 -37 -68 -45 -163 -46 -532
l0 -278 95 0 95 0 0 356 c0 312 2 360 17 391 21 45 70 67 131 60 63 -7 97 -43
97 -102 0 -41 -5 -49 -63 -108 -69 -70 -86 -110 -72 -173 11 -50 43 -81 124
-120 84 -41 92 -48 101 -81 8 -35 -10 -77 -42 -94 -33 -18 -115 -14 -156 6
-34 17 -46 9 -47 -30 0 -11 -3 -36 -6 -56 l-6 -37 70 -16 c136 -31 224 -13
290 58 58 63 75 135 51 219 -15 55 -54 93 -139 135 -42 21 -76 44 -78 54 -2
10 19 39 51 72 65 65 80 105 75 196 -5 90 -39 142 -119 183 -71 36 -187 46
-263 21z"/>
        <path d="M3165 3221 c-109 -27 -165 -107 -165 -237 l0 -64 -55 0 -55 0 0 -60
0 -60 55 0 55 0 0 -260 0 -260 85 0 85 0 0 260 0 260 85 0 85 0 0 60 0 60 -85
0 -85 0 0 65 c0 57 3 69 25 90 26 27 73 33 119 15 l26 -10 0 69 0 68 -37 7
c-47 7 -99 6 -138 -3z"/>
        <path d="M3438 2745 l-3 -465 83 0 82 0 0 465 0 465 -80 0 -80 0 -2 -465z"/>
        <path d="M20 2735 l0 -455 90 0 90 0 0 180 0 180 165 0 165 0 0 75 0 75 -165
0 -165 0 0 120 0 120 185 0 185 0 0 80 0 80 -275 0 -275 0 0 -455z"/>
        <path d="M2505 2931 c-37 -9 -94 -38 -117 -59 -17 -14 -18 -13 -18 16 l0 32
-80 0 -80 0 0 -455 0 -455 85 0 85 0 0 151 c0 83 3 149 8 147 70 -36 93 -42
167 -43 91 0 132 15 188 72 115 115 127 369 23 505 -52 69 -177 111 -261 89z
m81 -147 c98 -47 113 -263 24 -349 -42 -40 -117 -45 -180 -13 l-45 23 -3 156
-2 156 47 21 c58 26 113 28 159 6z"/>
        <path d="M3967 2930 c-94 -24 -165 -83 -206 -170 -21 -46 -25 -70 -26 -150 0
-67 5 -110 18 -147 24 -69 92 -144 159 -174 101 -46 300 -27 382 36 18 14 18
16 -9 62 -15 26 -29 49 -30 51 -1 1 -24 -8 -51 -20 -67 -30 -164 -31 -219 -2
-41 21 -68 58 -80 107 l-7 27 210 0 211 0 7 45 c18 124 -49 266 -150 314 -50
25 -153 35 -209 21z m131 -130 c33 -20 62 -71 62 -110 0 -19 -6 -20 -125 -20
-125 0 -125 0 -125 24 0 52 79 126 135 126 11 0 35 -9 53 -20z"/>
        <path d="M4635 2927 c-93 -31 -149 -81 -189 -166 -30 -67 -30 -246 0 -312 71
-153 223 -210 373 -139 35 17 65 29 66 28 8 -8 -16 -114 -30 -135 -42 -63
-160 -79 -280 -39 -38 14 -71 23 -73 21 -8 -8 -33 -119 -29 -129 3 -7 34 -21
68 -32 94 -28 277 -27 339 2 61 29 108 78 139 144 l26 55 3 348 3 347 -70 0
c-69 0 -71 -1 -71 -25 0 -25 -14 -33 -25 -15 -27 43 -177 71 -250 47z m195
-147 c21 -11 42 -25 45 -31 4 -6 7 -68 6 -137 -1 -122 -2 -128 -26 -149 -58
-51 -149 -54 -206 -6 -42 36 -59 80 -59 150 0 70 25 129 69 166 41 34 112 37
171 7z"/>
        <path d="M5397 2930 c-84 -22 -154 -77 -195 -154 -25 -47 -27 -60 -27 -171 0
-105 3 -126 23 -167 85 -170 289 -225 496 -134 l56 25 -27 56 c-20 41 -31 54
-43 49 -175 -76 -305 -41 -345 93 l-6 23 213 2 213 3 -1 90 c-1 59 -7 103 -18
128 -24 54 -84 117 -133 139 -50 22 -153 31 -206 18z m156 -148 c19 -19 30
-43 34 -70 l6 -42 -128 0 -127 0 6 33 c20 104 139 149 209 79z"/>
        <path d="M662 2668 c3 -238 4 -255 25 -294 41 -78 107 -114 203 -114 56 1 109
20 154 54 19 14 37 26 40 26 3 0 6 -13 6 -30 l0 -30 80 0 80 0 0 320 0 320
-85 0 -85 0 0 -223 0 -223 -27 -26 c-59 -56 -135 -64 -185 -19 l-33 29 -3 231
-3 231 -85 0 -86 0 4 -252z"/>
        <path d="M7666 2299 c-169 -28 -311 -179 -377 -403 -12 -39 -36 -100 -54 -136
-205 -404 -840 -847 -1525 -1066 -528 -168 -997 -205 -1635 -129 -788 94
-1085 96 -1434 9 -380 -94 -682 -309 -746 -533 -5 -15 27 12 92 77 151 153
296 241 513 312 229 76 470 106 755 97 194 -7 288 -16 840 -79 309 -35 391
-41 580 -41 453 -2 832 69 1260 236 113 44 203 87 565 273 106 54 165 65 374
71 125 4 187 2 183 -4 -4 -6 -35 -13 -69 -17 -96 -9 -252 -37 -261 -45 -11
-11 147 -88 218 -106 117 -30 223 -16 350 45 79 38 155 93 155 111 0 15 -121
100 -185 130 -127 57 -262 57 -435 -1 -47 -15 -86 -27 -88 -26 -1 2 35 31 80
66 107 82 285 261 371 371 70 90 102 142 199 323 32 59 73 129 92 155 34 46
112 125 105 106 -9 -24 -109 -205 -165 -301 -59 -99 -61 -104 -35 -97 184 44
333 174 408 356 26 63 75 228 70 234 -6 6 -110 23 -131 22 -11 -1 -43 -5 -70
-10z"/>
        <path d="M110 1497 l0 -285 35 -4 35 -4 0 118 0 118 54 0 54 0 67 -114 c65
-112 66 -114 106 -118 24 -2 38 0 35 7 -2 5 -34 59 -70 119 -66 107 -70 125
-30 126 18 0 73 67 80 96 11 42 -2 124 -23 152 -41 54 -76 66 -215 70 l-128 4
0 -285z m272 184 c27 -31 30 -39 25 -84 -3 -39 -11 -56 -31 -74 -24 -20 -38
-23 -112 -23 l-84 0 0 111 0 111 86 -3 c83 -4 87 -5 116 -38z"/>
        <path d="M1441 1766 c-7 -8 -11 -27 -9 -43 2 -22 9 -29 31 -31 50 -6 75 38 41
72 -19 20 -48 20 -63 2z"/>
        <path d="M2720 1493 l0 -288 137 5 c115 4 144 8 173 25 93 55 90 184 -6 250
l-30 20 30 20 c60 39 75 124 33 186 -33 49 -95 68 -229 69 l-108 0 0 -287z
m235 213 c64 -27 77 -106 24 -150 -27 -23 -39 -26 -112 -26 l-82 0 0 95 0 95
68 0 c37 0 83 -6 102 -14z m41 -269 c48 -56 20 -149 -49 -162 -18 -3 -60 -7
-95 -8 l-64 -2 -1 104 -2 103 93 -4 c88 -3 95 -5 118 -31z"/>
        <path d="M634 1601 c-70 -43 -99 -114 -91 -223 8 -120 72 -181 188 -181 53 0
108 14 136 36 9 7 9 13 0 30 -7 12 -13 23 -13 25 -1 2 -19 -4 -39 -12 -21 -9
-60 -16 -87 -16 -43 0 -54 4 -84 34 -24 24 -34 43 -34 65 l0 31 140 0 140 0 0
58 c0 70 -30 127 -80 153 -47 25 -135 25 -176 0z m157 -60 c21 -21 29 -39 29
-63 l0 -35 -105 -2 c-101 -2 -105 -2 -105 19 0 91 118 144 181 81z"/>
        <path d="M1055 1604 c-16 -8 -38 -22 -47 -31 -55 -49 -65 -217 -18 -287 51
-75 163 -97 232 -46 l31 23 -5 -53 c-9 -92 -79 -129 -188 -100 -57 15 -54 16
-61 -19 -6 -28 -3 -31 29 -42 52 -17 161 -15 197 4 38 19 71 54 84 90 7 17 11
117 11 248 l0 219 -30 0 c-21 0 -30 -5 -30 -16 0 -13 -5 -12 -34 5 -41 26
-127 28 -171 5z m163 -64 l32 -20 0 -98 c0 -84 -3 -101 -19 -116 -54 -49 -150
-37 -185 23 -37 64 -18 177 36 215 31 22 96 20 136 -4z"/>
        <path d="M1473 1613 l-33 -4 0 -199 0 -198 35 -4 35 -4 0 208 c0 114 -1 207
-2 206 -2 0 -18 -3 -35 -5z"/>
        <path d="M1744 1606 c-18 -8 -35 -19 -38 -25 -12 -19 -29 -12 -23 9 4 17 0 20
-29 20 l-34 0 0 -199 0 -199 35 -4 35 -4 0 143 0 142 31 35 c37 43 83 55 127
32 16 -8 32 -23 36 -31 3 -9 6 -84 6 -166 l0 -149 38 0 37 0 -2 128 c-1 70 -2
147 -2 171 -1 35 -7 49 -35 77 -31 31 -39 34 -92 34 -33 -1 -73 -7 -90 -14z"/>
        <path d="M2120 1603 c-27 -14 -34 -24 -32 -42 3 -33 4 -33 42 -15 18 9 51 19
74 21 54 7 94 -24 103 -79 l6 -38 -75 0 c-100 0 -157 -28 -177 -85 -48 -141
120 -228 237 -122 l22 20 0 -26 c0 -23 4 -27 30 -27 l30 0 0 143 c0 159 -8
203 -46 238 -22 20 -37 24 -102 27 -59 2 -85 -1 -112 -15z m183 -235 c-8 -66
-14 -79 -46 -98 -37 -23 -84 -25 -109 -6 -23 17 -33 68 -18 95 15 30 44 40
116 40 l61 1 -4 -32z"/>
        <path d="M3274 1606 c-106 -47 -140 -248 -57 -346 14 -17 39 -38 57 -47 40
-21 138 -20 193 2 40 16 41 18 31 46 -5 16 -11 29 -13 29 -1 0 -20 -7 -41 -16
-25 -11 -56 -15 -92 -12 -64 6 -100 35 -109 91 l-6 37 142 0 141 0 0 53 c0 69
-33 134 -80 159 -41 21 -121 23 -166 4z m125 -50 c30 -16 51 -53 51 -92 l0
-24 -105 2 c-116 2 -122 6 -90 68 28 53 90 73 144 46z"/>
        <path d="M3744 1610 c-12 -4 -31 -21 -43 -36 l-21 -27 0 32 c0 28 -3 31 -30
31 l-30 0 0 -203 0 -203 35 4 35 4 0 135 c0 109 3 140 17 164 20 33 62 53 98
47 23 -5 25 -2 25 28 0 32 -2 34 -32 33 -18 0 -43 -4 -54 -9z"/>
        <path d="M3980 1613 c-73 -28 -112 -97 -113 -199 0 -61 4 -79 27 -119 50 -84
164 -110 238 -55 l31 23 -5 -53 c-7 -69 -38 -101 -105 -107 -29 -3 -66 1 -93
11 -24 8 -45 14 -46 13 -1 -1 -5 -16 -8 -33 -8 -36 -2 -41 83 -54 108 -18 209
29 231 108 5 20 10 133 10 250 l0 212 -30 0 c-20 0 -30 -5 -30 -15 0 -19 -3
-19 -42 5 -32 19 -112 26 -148 13z m148 -73 l32 -20 0 -99 c0 -97 -1 -100 -27
-119 -39 -27 -73 -33 -115 -22 -47 13 -69 40 -79 96 -26 137 81 230 189 164z"/>
        <path d="M4424 1606 c-69 -30 -111 -127 -100 -230 12 -116 79 -181 188 -180
31 1 77 9 102 18 43 17 45 18 33 44 -6 15 -12 28 -12 30 -1 1 -18 -5 -38 -13
-47 -20 -126 -19 -155 1 -26 18 -52 65 -52 94 0 19 6 20 140 20 l140 0 0 58
c0 110 -58 172 -159 172 -31 -1 -70 -7 -87 -14z m147 -65 c21 -22 29 -39 29
-65 l0 -36 -105 0 c-116 0 -119 2 -90 64 33 68 116 87 166 37z"/>
        <path d="M4883 1604 c-18 -9 -33 -20 -33 -25 0 -5 -4 -9 -10 -9 -5 0 -10 9
-10 20 0 16 -7 20 -30 20 l-30 0 0 -200 0 -200 35 0 35 0 0 148 c0 143 1 149
23 170 29 27 82 44 114 36 13 -4 32 -18 43 -31 18 -23 20 -41 20 -174 l0 -149
35 0 35 0 0 155 c0 175 -9 214 -59 239 -39 20 -127 20 -168 0z"/>
    </g>
</svg>
