<?xml version="1.0" standalone="no"?>
<!DOCTYPE svg PUBLIC "-//W3C//DTD SVG 20010904//EN" "http://www.w3.org/TR/2001/REC-SVG-20010904/DTD/svg10.dtd">
<svg version="1.0" xmlns="http://www.w3.org/2000/svg"
     width="836.000000pt" height="429.000000pt" viewBox="0 0 836.000000 429.000000"
     preserveAspectRatio="xMidYMid meet">

    <g transform="translate(0.000000,429.000000) scale(0.100000,-0.100000)"
       fill="#0284c7" stroke="none">
        <path d="M665 4256 c-138 -64 -238 -262 -221 -436 26 -255 264 -345 427 -162
139 157 157 411 38 547 -66 75 -155 93 -244 51z"/>
        <path d="M1237 4047 c-56 -18 -99 -58 -135 -124 -99 -187 -42 -379 111 -377
126 1 227 141 227 313 -1 144 -88 225 -203 188z"/>
        <path d="M1589 3766 c-92 -63 -145 -224 -105 -320 53 -127 209 -91 279 64 27
59 29 171 4 217 -34 64 -115 81 -178 39z"/>
        <path d="M4710 3185 l0 -455 85 0 85 0 0 45 0 46 32 -37 c43 -48 83 -64 163
-64 81 0 146 30 199 91 51 60 71 126 71 234 0 77 -4 99 -28 150 -54 117 -129
169 -242 169 -80 0 -138 -24 -174 -71 l-20 -28 -1 188 0 187 -85 0 -85 0 0
-455z m405 25 c45 -28 70 -89 69 -170 -2 -122 -50 -180 -150 -180 -101 0 -158
67 -158 185 0 82 20 126 74 162 43 30 119 31 165 3z"/>
        <path d="M5514 3630 c-87 -35 -60 -169 33 -170 49 0 81 19 93 55 15 46 3 84
-34 106 -33 20 -58 23 -92 9z"/>
        <path d="M5780 3185 l0 -455 80 0 80 0 0 455 0 455 -80 0 -80 0 0 -455z"/>
        <path d="M2890 3165 l0 -435 86 0 85 0 -3 310 c-2 170 0 306 3 302 3 -4 18
-38 32 -77 15 -38 67 -160 115 -270 l88 -200 64 0 63 0 104 234 c57 129 109
252 116 273 6 21 15 38 19 38 4 0 6 -137 5 -305 l-2 -305 85 0 85 0 0 435 0
436 -103 -3 -104 -3 -103 -237 c-57 -130 -116 -271 -131 -313 l-27 -77 -32 89
c-18 48 -76 186 -129 307 -53 120 -96 222 -96 227 0 5 -49 9 -110 9 l-110 0 0
-435z"/>
        <path d="M1894 3481 c-134 -84 -155 -314 -32 -345 137 -34 271 218 175 330
-31 36 -99 43 -143 15z"/>
        <path d="M765 3434 c-11 -2 -45 -9 -75 -15 -151 -31 -282 -143 -330 -285 -76
-221 6 -509 248 -871 140 -209 177 -290 188 -412 15 -155 -39 -295 -231 -596
-183 -286 -224 -396 -225 -591 0 -302 163 -530 440 -615 104 -32 255 -33 355
-2 232 73 413 283 494 575 11 40 27 125 36 188 55 404 86 515 257 919 143 338
177 471 164 643 -16 213 -97 396 -255 577 -191 220 -515 407 -801 464 -81 17
-232 28 -265 21z m265 -195 c354 -81 687 -330 821 -615 57 -120 72 -196 66
-334 -5 -139 -24 -204 -139 -470 -99 -230 -158 -392 -197 -540 -28 -108 -37
-160 -77 -440 -26 -190 -77 -326 -167 -445 -104 -139 -268 -218 -419 -201
-344 39 -514 378 -360 719 16 35 81 144 144 243 216 335 265 471 256 712 -7
182 -42 270 -182 462 -183 249 -276 462 -276 629 0 96 15 142 62 196 95 108
245 135 468 84z"/>
        <path d="M4172 3356 c-60 -20 -114 -59 -149 -109 -42 -61 -54 -93 -60 -169
-12 -140 48 -263 158 -323 46 -25 68 -30 146 -33 81 -4 97 -2 145 20 71 33
118 75 154 140 27 49 29 60 29 158 0 86 -4 113 -21 151 -52 112 -145 171 -278
176 -51 2 -97 -2 -124 -11z m187 -146 c104 -53 110 -268 9 -330 -44 -27 -122
-27 -166 0 -61 37 -92 121 -77 209 19 115 132 173 234 121z"/>
        <path d="M6253 3349 c-71 -27 -136 -94 -163 -167 -18 -48 -21 -73 -18 -157 3
-88 7 -107 33 -153 35 -64 71 -96 145 -130 107 -49 281 -28 369 46 l35 29 -35
45 -35 46 -25 -19 c-67 -52 -202 -63 -257 -22 -30 23 -57 65 -67 106 l-7 27
217 0 218 0 -5 83 c-6 96 -32 159 -86 212 -75 72 -212 95 -319 54z m189 -125
c30 -16 58 -61 58 -94 0 -19 -6 -20 -136 -20 l-135 0 6 23 c31 103 114 139
207 91z"/>
        <path d="M5470 3045 l0 -315 85 0 85 0 0 315 0 315 -85 0 -85 0 0 -315z"/>
        <path d="M2113 3161 c-52 -32 -88 -104 -88 -177 0 -70 17 -99 66 -109 62 -14
146 59 170 148 31 115 -54 195 -148 138z"/>
        <path d="M4378 2416 c-84 -23 -146 -80 -168 -157 -6 -19 -10 -188 -10 -386 l0
-353 80 0 80 0 0 330 c0 312 1 333 20 370 49 96 161 90 191 -10 16 -52 -10
-106 -66 -137 l-41 -22 -2 -71 c-3 -63 -1 -70 16 -70 10 0 43 -7 72 -16 70
-21 120 -69 120 -116 0 -94 -96 -162 -184 -129 -24 10 -25 9 -31 -55 -4 -36
-4 -68 0 -72 3 -4 45 -9 92 -11 62 -2 96 1 128 14 49 18 109 79 132 134 19 44
22 143 5 191 -17 49 -73 104 -138 136 l-54 26 39 28 c73 53 92 163 45 259 -55
109 -184 155 -326 117z"/>
        <path d="M5827 2420 c-80 -24 -137 -116 -137 -220 l0 -50 -42 0 -43 0 0 -65 0
-65 43 0 42 0 0 -250 0 -250 80 0 80 0 0 250 0 250 60 0 60 0 0 65 0 65 -63 0
-62 0 5 64 c7 83 19 96 86 96 l54 0 0 54 c0 47 -3 54 -22 60 -32 8 -107 6
-141 -4z"/>
        <path d="M6060 1970 l0 -450 80 0 80 0 0 450 0 450 -80 0 -80 0 0 -450z"/>
        <path d="M2890 1958 l0 -438 80 0 80 0 0 170 0 170 165 0 165 0 0 75 0 75
-165 0 -165 0 0 120 0 120 185 0 186 0 -3 71 -3 71 -262 1 -263 2 0 -437z"/>
        <path d="M5196 2146 c-21 -8 -54 -29 -72 -47 l-34 -33 0 42 0 42 -77 0 -78 0
0 -435 0 -435 78 0 77 0 0 156 0 156 34 -30 c48 -42 96 -55 177 -50 158 12
246 140 237 342 -6 136 -58 230 -151 278 -52 26 -140 33 -191 14z m123 -143
c43 -32 65 -89 65 -168 0 -84 -23 -139 -73 -172 -62 -42 -155 -22 -195 40 -45
68 -39 218 11 277 43 52 137 63 192 23z"/>
        <path d="M6545 2143 c-100 -36 -159 -101 -190 -208 -37 -126 -3 -267 84 -348
64 -60 128 -80 234 -75 86 4 163 31 216 77 l23 21 -33 44 -34 43 -35 -22
c-132 -83 -282 -42 -306 83 l-6 32 212 0 213 0 -6 80 c-7 90 -29 149 -75 202
-64 72 -201 105 -297 71z m163 -133 c18 -11 40 -36 48 -55 27 -66 29 -65 -121
-65 -151 0 -151 0 -115 70 11 22 32 46 48 54 39 22 101 20 140 -4z"/>
        <path d="M7225 2151 c-86 -22 -150 -77 -189 -161 -17 -36 -21 -65 -20 -145 0
-121 20 -172 94 -238 103 -93 263 -91 328 3 l22 33 0 -57 c0 -66 -17 -111 -54
-146 -24 -21 -39 -25 -107 -29 -71 -3 -85 0 -144 27 l-64 31 -31 -46 c-17 -25
-29 -51 -26 -58 2 -8 39 -30 81 -51 65 -32 88 -38 159 -42 121 -6 184 14 251
82 84 84 88 102 93 479 l4 317 -82 0 -82 0 4 -40 c4 -44 -1 -50 -19 -21 -27
43 -152 79 -218 62z m193 -164 c77 -74 65 -245 -20 -297 -43 -26 -113 -26
-156 0 -91 56 -95 239 -6 309 25 20 38 22 91 19 52 -3 68 -9 91 -31z"/>
        <path d="M7943 2146 c-137 -45 -213 -158 -213 -317 0 -98 29 -171 94 -235 34
-33 70 -57 101 -67 61 -21 175 -22 242 -2 48 14 133 67 133 83 0 4 -14 27 -31
50 l-30 41 -37 -23 c-80 -51 -185 -60 -240 -19 -37 27 -72 81 -72 109 l0 24
210 0 210 0 0 63 c0 35 -7 86 -15 114 -19 64 -89 145 -146 167 -58 23 -155 29
-206 12z m178 -155 c29 -28 39 -47 39 -70 l0 -31 -135 0 c-150 0 -150 0 -118
67 22 48 66 73 127 73 43 0 53 -4 87 -39z"/>
        <path d="M3492 1903 c3 -235 4 -250 26 -290 12 -24 41 -55 63 -70 82 -54 227
-39 292 30 l27 29 0 -41 0 -41 75 0 75 0 0 315 0 315 -80 0 -80 0 0 -217 c0
-241 -1 -244 -67 -277 -61 -31 -138 -11 -162 41 -7 15 -11 106 -11 238 l0 215
-81 0 -80 0 3 -247z"/>
        <path d="M2890 663 l0 -283 38 0 37 0 -3 115 -3 115 48 0 48 0 74 -115 73
-115 44 0 c53 0 55 -8 -40 129 -36 52 -66 98 -66 101 0 3 18 14 40 24 65 29
98 102 80 180 -22 99 -72 126 -244 129 l-126 2 0 -282z m215 207 c83 -19 113
-104 56 -161 -28 -28 -34 -29 -115 -29 l-86 0 0 93 c0 52 3 97 7 100 9 10 91
8 138 -3z"/>
        <path d="M4313 940 c-18 -7 -23 -17 -23 -44 0 -36 12 -46 55 -46 23 0 45 25
45 49 0 13 -37 51 -47 50 -5 0 -18 -4 -30 -9z"/>
        <path d="M5600 663 l0 -283 133 0 c120 0 138 2 177 23 103 55 107 205 6 253
l-34 17 39 37 c34 32 39 43 39 81 0 59 -28 108 -75 133 -32 16 -59 20 -162 20
l-123 1 0 -282z m255 187 c25 -23 33 -68 19 -105 -11 -28 -60 -45 -129 -45
l-65 0 0 91 0 92 75 -5 c61 -4 80 -9 100 -28z m18 -234 c24 -11 37 -38 37 -78
0 -69 -49 -98 -167 -98 l-63 0 0 98 0 97 87 -6 c49 -3 96 -9 106 -13z"/>
        <path d="M3454 761 c-118 -54 -151 -243 -59 -336 71 -70 194 -73 294 -7 11 8
10 14 -4 35 l-17 26 -27 -20 c-38 -28 -119 -36 -159 -15 -31 16 -62 61 -62 91
0 13 21 15 145 15 l145 0 0 33 c0 148 -127 236 -256 178z m145 -68 c17 -16 33
-40 37 -55 l6 -28 -111 0 c-106 0 -111 1 -111 21 0 12 15 36 34 55 45 45 101
48 145 7z"/>
        <path d="M3893 761 c-26 -12 -52 -35 -70 -62 -25 -38 -28 -51 -28 -123 0 -96
21 -139 83 -174 67 -37 145 -29 200 21 l22 20 0 -50 c0 -35 -6 -58 -20 -76
-41 -52 -138 -59 -209 -16 -36 22 -36 21 -62 -24 -9 -15 -3 -21 38 -39 65 -30
161 -35 219 -13 95 36 114 98 114 373 l0 172 -41 0 c-41 0 -41 0 -35 -32 l6
-32 -27 26 c-54 51 -119 61 -190 29z m140 -55 c48 -20 71 -61 71 -126 0 -88
-48 -140 -130 -140 -51 0 -100 50 -109 112 -10 63 21 133 67 153 42 18 61 18
101 1z"/>
        <path d="M4645 765 c-16 -9 -38 -25 -47 -36 -18 -21 -18 -21 -18 10 0 29 -2
31 -38 31 l-39 0 1 -195 1 -195 38 0 37 0 0 134 c0 129 1 136 25 164 13 16 38
32 55 36 43 8 98 -16 110 -49 6 -15 10 -85 10 -156 l0 -129 36 0 36 0 -4 154
c-3 137 -5 158 -24 183 -42 57 -120 78 -179 48z"/>
        <path d="M5029 767 c-19 -7 -45 -20 -56 -28 -20 -14 -21 -16 -4 -37 l17 -23
48 22 c35 15 61 20 89 16 49 -7 66 -23 74 -70 l6 -37 -69 0 c-87 0 -130 -12
-166 -47 -23 -22 -28 -35 -28 -74 0 -54 23 -89 70 -109 42 -17 121 -8 159 19
31 22 31 22 31 2 0 -17 6 -21 35 -21 l35 0 0 146 c0 164 -11 203 -63 231 -41
21 -134 26 -178 10z m171 -241 c0 -82 -110 -132 -172 -78 -35 29 -17 87 32
105 8 3 43 6 78 6 l62 1 0 -34z"/>
        <path d="M6201 769 c-96 -38 -144 -139 -120 -251 28 -127 170 -186 297 -122
56 28 58 31 39 58 -12 16 -15 16 -57 -3 -59 -27 -120 -27 -154 0 -26 20 -56
68 -56 89 0 6 51 10 146 10 l147 0 -6 61 c-6 74 -36 122 -93 149 -43 21 -103
25 -143 9z m119 -66 c28 -16 50 -51 50 -78 0 -12 -20 -15 -110 -15 -70 0 -110
4 -110 10 0 6 7 24 15 40 29 55 101 75 155 43z"/>
        <path d="M6675 763 c-16 -8 -38 -25 -47 -37 -17 -21 -18 -21 -18 12 0 30 -2
32 -35 32 l-35 0 0 -195 0 -195 35 0 35 0 0 120 c0 159 20 200 98 200 25 0 30
5 36 31 3 17 6 35 6 40 0 14 -42 10 -75 -8z"/>
        <path d="M6883 759 c-123 -61 -135 -268 -21 -352 41 -31 124 -34 176 -8 23 12
42 26 42 31 0 6 5 10 11 10 15 0 5 -90 -13 -119 -32 -52 -134 -62 -206 -20
-18 10 -35 19 -37 19 -3 0 -11 -13 -20 -30 l-15 -29 42 -22 c28 -15 67 -24
113 -26 59 -4 77 -1 114 19 90 47 100 83 101 346 l0 192 -35 0 c-31 0 -35 -3
-35 -25 0 -14 -4 -25 -10 -25 -5 0 -10 4 -10 10 0 17 -78 50 -117 50 -21 0
-57 -9 -80 -21z m167 -67 c39 -30 51 -61 47 -125 -3 -49 -8 -63 -34 -88 -57
-58 -153 -46 -189 23 -24 47 -15 140 17 174 13 14 33 30 44 35 28 12 85 3 115
-19z"/>
        <path d="M7395 769 c-38 -11 -94 -64 -111 -106 -31 -72 -8 -200 42 -245 67
-59 198 -62 276 -6 27 19 27 20 11 42 l-17 22 -41 -23 c-87 -50 -184 -16 -210
75 l-6 22 151 0 152 0 -6 48 c-4 26 -17 67 -29 92 -36 73 -122 106 -212 79z
m115 -64 c33 -17 50 -43 50 -74 0 -20 -6 -21 -109 -21 l-110 0 10 30 c24 68
97 97 159 65z"/>
        <path d="M7873 766 c-18 -8 -38 -24 -45 -35 -18 -29 -28 -26 -28 9 0 28 -3 30
-35 30 l-35 0 0 -195 0 -195 38 0 37 0 0 133 c0 111 3 136 18 159 37 55 132
60 165 10 14 -21 17 -51 17 -164 l0 -138 38 0 39 0 -4 148 c-4 159 -14 196
-63 228 -35 23 -103 27 -142 10z"/>
        <path d="M4300 575 l0 -195 35 0 35 0 0 195 0 195 -35 0 -35 0 0 -195z"/>
    </g>
</svg>

